<?xml version="1.0" encoding="utf-8"?>
<!-- Generator: Adobe Illustrator 17.0.0, SVG Export Plug-In . SVG Version: 6.00 Build 0)  -->
<!DOCTYPE svg PUBLIC "-//W3C//DTD SVG 1.1//EN" "http://www.w3.org/Graphics/SVG/1.1/DTD/svg11.dtd">
<svg version="1.1" id="图层_1" xmlns="http://www.w3.org/2000/svg" xmlns:xlink="http://www.w3.org/1999/xlink" x="0px" y="0px"
	 width="375.529px" height="56px" viewBox="0 0 375.529 56" enable-background="new 0 0 375.529 56" xml:space="preserve">
<g>
	<g id="INSERT">
		<g id="SPLINE">
			<path fill="none" stroke="#000000" stroke-width="0" stroke-linecap="round" stroke-linejoin="round" stroke-miterlimit="10" d="
				M339.121,40.553c0.101,0.037,0.171-0.1,0.079-0.157c-1.495-0.947-2.313-2.479-2.313-4.816c0-4.492,3.43-5.863,10.448-5.863
				c3.522,0,6.633,0.339,8.81,0.656c1.434,0.21,2.72-0.909,2.72-2.365v-1.891c-1.493-0.413-5.273-1.178-11.53-1.178
				c-6.989,0-11.803,1.316-14.223,4.493c-0.527,0.763-1.222,2.225-0.833,4.302C332.86,36.839,335.555,39.224,339.121,40.553z"/>
		</g>
		<g id="HATCH">
			<path d="M339.121,40.553c0.101,0.037,0.171-0.1,0.079-0.157c-1.495-0.947-2.313-2.479-2.313-4.816
				c0-4.492,3.43-5.863,10.448-5.863c3.522,0,6.633,0.339,8.81,0.656c1.434,0.21,2.72-0.909,2.72-2.365v-1.891
				c-1.493-0.413-5.273-1.178-11.53-1.178c-6.989,0-11.803,1.316-14.223,4.493c-0.527,0.763-1.222,2.225-0.833,4.302
				C332.86,36.839,335.555,39.224,339.121,40.553z"/>
		</g>
		<g id="SPLINE_1_">
			<path fill="none" stroke="#000000" stroke-width="0" stroke-linecap="round" stroke-linejoin="round" stroke-miterlimit="10" d="
				M357.771,33.478h-10.028v2.044c0,1.351,1.093,2.448,2.44,2.448h4.075v2.836c-1.111,0.413-3.843,0.892-8.734,0.892
				c-4.93,0-8.836-0.933-11.387-2.98c-1.592-1.279-2.385-2.722-2.809-4.051c-0.017,0.297-0.03,0.601-0.03,0.914
				c0,7.647,4.604,10.929,13.751,10.929c5.811,0,8.194-1.148,9.75-1.72l2.89,1.401c0.38,0.16,0.699,0.319,1.08,0.319
				c0.444,0,0.953-0.286,0.953-0.988v-7.551v-2.422v-0.114C359.721,34.355,358.847,33.478,357.771,33.478z"/>
		</g>
		<g id="HATCH_1_">
			<path d="M357.771,33.478h-10.028v2.044c0,1.351,1.093,2.448,2.44,2.448h4.075v2.836c-1.111,0.413-3.843,0.892-8.734,0.892
				c-4.93,0-8.836-0.933-11.387-2.98c-1.592-1.279-2.385-2.722-2.809-4.051c-0.017,0.297-0.03,0.601-0.03,0.914
				c0,7.647,4.604,10.929,13.751,10.929c5.811,0,8.194-1.148,9.75-1.72l2.89,1.401c0.38,0.16,0.699,0.319,1.08,0.319
				c0.444,0,0.953-0.286,0.953-0.988v-7.551v-2.422v-0.114C359.721,34.355,358.847,33.478,357.771,33.478z"/>
		</g>
		<g id="SPLINE_2_">
			<path fill="none" stroke="#000000" stroke-width="0" stroke-linecap="round" stroke-linejoin="round" stroke-miterlimit="10" d="
				M315.211,32.83c-2.14,0-5.24,0.223-7.031,0.352l0.542-3.358h15.104c1.491,0,2.7-1.207,2.7-2.698v-1.808h-20.991
				c-0.652,0-1.207,0.468-1.316,1.11l-1.281,7.551c-0.352,1.887,0.319,3.262,2.525,3.166c4.154-0.129,5.977-0.16,9.11-0.16
				c5.691,0,7.542,0.223,7.542,2.459c0,2.142-1.758,2.527-7.606,2.527c-4.156,0-9.206-0.767-11.89-1.375v2.278
				c0,1.366,0.975,2.542,2.319,2.785c2.293,0.415,5.693,0.85,9.634,0.85c8.95,0,13.425-2.016,13.425-7.066
				C327.998,33.182,321.955,32.83,315.211,32.83z"/>
		</g>
		<g id="HATCH_2_">
			<path d="M315.211,32.83c-2.14,0-5.24,0.223-7.031,0.352l0.542-3.358h15.104c1.491,0,2.7-1.207,2.7-2.698v-1.808h-20.991
				c-0.652,0-1.207,0.468-1.316,1.11l-1.281,7.551c-0.352,1.887,0.319,3.262,2.525,3.166c4.154-0.129,5.977-0.16,9.11-0.16
				c5.691,0,7.542,0.223,7.542,2.459c0,2.142-1.758,2.527-7.606,2.527c-4.156,0-9.206-0.767-11.89-1.375v2.278
				c0,1.366,0.975,2.542,2.319,2.785c2.293,0.415,5.693,0.85,9.634,0.85c8.95,0,13.425-2.016,13.425-7.066
				C327.998,33.182,321.955,32.83,315.211,32.83z"/>
		</g>
		<g id="SPLINE_3_">
			<path fill="none" stroke="#000000" stroke-width="0" stroke-linecap="round" stroke-linejoin="round" stroke-miterlimit="10" d="
				M369.314,20.823c-3.502-3.082-8.235-4.779-13.329-4.779h-47.588c-9.387,0-19.492,6.167-19.492,19.708
				c0,7.793,3.371,12.398,6.2,14.886c3.491,3.074,8.211,4.766,13.292,4.766h47.588c9.413,0,19.544-6.15,19.544-19.651
				C375.529,27.935,372.15,23.319,369.314,20.823z"/>
		</g>
		<g id="SPLINE_4_">
			<path fill="none" stroke="#000000" stroke-width="0" stroke-linecap="round" stroke-linejoin="round" stroke-miterlimit="10" d="
				M355.985,51.84h-47.588c-7.929,0-15.928-4.973-15.928-16.088c0-11.154,7.999-16.145,15.928-16.145h47.588
				c7.955,0,15.981,4.991,15.981,16.145C371.966,46.866,363.941,51.84,355.985,51.84z"/>
		</g>
		<g id="HATCH_3_">
			<path d="M369.314,20.823c-3.502-3.082-8.235-4.779-13.329-4.779h-47.588c-9.387,0-19.492,6.167-19.492,19.708
				c0,7.793,3.371,12.398,6.2,14.886c3.491,3.074,8.211,4.766,13.292,4.766h47.588c9.413,0,19.544-6.15,19.544-19.651
				C375.529,27.935,372.15,23.319,369.314,20.823z M355.985,51.84h-47.588c-7.929,0-15.928-4.973-15.928-16.088
				c0-11.154,7.999-16.145,15.928-16.145h47.588c7.955,0,15.981,4.991,15.981,16.145C371.966,46.866,363.941,51.84,355.985,51.84z"
				/>
		</g>
		<g id="POLYLINE">
			
				<polyline fill="none" stroke="#000000" stroke-width="0" stroke-linecap="round" stroke-linejoin="round" stroke-miterlimit="10" points="
				227.384,16.692 220.924,16.692 220.924,22.034 227.384,22.034 227.384,54.708 233.319,54.708 233.319,16.692 227.565,16.692 
				227.384,16.692 			"/>
		</g>
		<g id="HATCH_4_">
			<polygon points="227.384,16.692 220.924,16.692 220.924,22.034 227.384,22.034 227.384,54.708 233.319,54.708 233.319,16.692 
				227.565,16.692 227.384,16.692 			"/>
		</g>
		<g id="POLYLINE_1_">
			
				<polyline fill="none" stroke="#000000" stroke-width="0" stroke-linecap="round" stroke-linejoin="round" stroke-miterlimit="10" points="
				0,22.476 6.476,22.476 6.476,16 0,16 0,22.476 			"/>
		</g>
		<g id="HATCH_5_">
			<polygon points="0,22.476 6.476,22.476 6.476,16 0,16 0,22.476 			"/>
		</g>
		<g id="POLYLINE_2_">
			
				<polyline fill="none" stroke="#000000" stroke-width="0" stroke-linecap="round" stroke-linejoin="round" stroke-miterlimit="10" points="
				0,55.409 6.476,55.409 6.476,28.953 0,28.953 0,55.409 			"/>
		</g>
		<g id="HATCH_6_">
			<polygon points="0,55.409 6.476,55.409 6.476,28.953 0,28.953 0,55.409 			"/>
		</g>
		<g id="SPLINE_5_">
			<path fill="none" stroke="#000000" stroke-width="0" stroke-linecap="round" stroke-linejoin="round" stroke-miterlimit="10" d="
				M25.772,35.699c0-7.302,5.92-13.223,13.223-13.223c7.303,0,13.223,5.92,13.223,13.223h6.476C58.694,24.82,49.875,16,38.995,16
				c-10.879,0-19.699,8.82-19.699,19.699c0,10.88,8.819,19.699,19.699,19.699h0.001v-6.476h-0.001
				C31.692,48.922,25.772,43.002,25.772,35.699z"/>
		</g>
		<g id="HATCH_7_">
			<path d="M25.772,35.699c0-7.302,5.92-13.223,13.223-13.223c7.303,0,13.223,5.92,13.223,13.223h6.476
				C58.694,24.82,49.875,16,38.995,16c-10.879,0-19.699,8.82-19.699,19.699c0,10.88,8.819,19.699,19.699,19.699
				c0.001,0,0.001-6.476,0.001-6.476C31.692,48.922,25.772,43.002,25.772,35.699z"/>
		</g>
		<g id="SPLINE_6_">
			
				<circle fill="none" stroke="#000000" stroke-width="0" stroke-linecap="round" stroke-linejoin="round" stroke-miterlimit="10" cx="91.212" cy="35.699" r="19.699"/>
		</g>
		<g id="SPLINE_7_">
			
				<circle fill="none" stroke="#000000" stroke-width="0" stroke-linecap="round" stroke-linejoin="round" stroke-miterlimit="10" cx="91.213" cy="35.699" r="13.223"/>
		</g>
		<g id="HATCH_8_">
			<path d="M91.212,16c-10.879,0-19.698,8.82-19.698,19.699c0,10.88,8.819,19.699,19.698,19.699c10.88,0,19.699-8.819,19.699-19.699
				C110.911,24.82,102.092,16,91.212,16z M91.213,48.922c-7.302,0-13.223-5.92-13.223-13.223c0-7.302,5.92-13.223,13.223-13.223
				c7.303,0,13.223,5.92,13.223,13.223C104.435,43.002,98.515,48.922,91.213,48.922z"/>
		</g>
		<g id="SPLINE_8_">
			<path fill="none" stroke="#000000" stroke-width="0" stroke-linecap="round" stroke-linejoin="round" stroke-miterlimit="10" d="
				M143.43,16c-10.879,0-19.699,8.82-19.699,19.699V35.7v0.001c0,10.879,8.819,19.698,19.699,19.698
				c10.88,0,19.699-8.819,19.699-19.698c0-1.02-0.078-2.022-0.227-3.001C161.458,23.245,153.29,16,143.43,16z"/>
		</g>
		<g id="SPLINE_9_">
			
				<circle fill="none" stroke="#000000" stroke-width="0" stroke-linecap="round" stroke-linejoin="round" stroke-miterlimit="10" cx="143.43" cy="35.699" r="13.223"/>
		</g>
		<g id="HATCH_9_">
			<path d="M143.43,16c-10.879,0-19.699,8.82-19.699,19.699c0,10.882,8.819,19.701,19.699,19.701
				c10.88,0,19.699-8.819,19.699-19.698c0-1.02-0.078-2.022-0.227-3.001C161.458,23.245,153.29,16,143.43,16z M143.43,48.922
				c-7.303,0-13.223-5.92-13.223-13.223c0-7.302,5.92-13.223,13.223-13.223c7.303,0,13.223,5.92,13.223,13.223
				C156.653,43.002,150.732,48.922,143.43,48.922z"/>
		</g>
		<g id="POLYLINE_3_">
			
				<polyline fill="none" stroke="#000000" stroke-width="0" stroke-linecap="round" stroke-linejoin="round" stroke-miterlimit="10" points="
				38.57,39.846 54.64,56 59.232,51.432 43.161,35.279 38.57,39.846 			"/>
		</g>
		<g id="HATCH_10_">
			<polygon points="38.57,39.846 54.64,56 59.232,51.432 43.161,35.279 38.57,39.846 			"/>
		</g>
		<g id="POLYLINE_4_">
			
				<polyline fill="none" stroke="#000000" stroke-width="0" stroke-linecap="round" stroke-linejoin="round" stroke-miterlimit="10" points="
				214.218,16.692 214.218,16.692 184.264,16.692 184.264,22.034 204.843,22.034 182.92,54.744 187.87,54.744 190.139,54.744 
				215.642,54.744 215.642,49.403 193.719,49.403 215.642,16.692 214.218,16.692 			"/>
		</g>
		<g id="HATCH_11_">
			<polygon points="214.218,16.692 184.264,16.692 184.264,22.034 204.843,22.034 182.92,54.744 187.87,54.744 190.139,54.744 
				215.642,54.744 215.642,49.403 193.719,49.403 215.642,16.692 214.218,16.692 			"/>
		</g>
		<g id="POLYLINE_5_">
			
				<polyline fill="none" stroke="#000000" stroke-width="0" stroke-linecap="round" stroke-linejoin="round" stroke-miterlimit="10" points="
				269.246,25.608 262.17,25.608 255.313,35.44 248.454,25.608 241.434,25.608 251.614,40.217 240.841,54.708 248.02,54.708 
				255.366,44.821 262.715,54.708 269.84,54.708 259.065,40.217 269.246,25.608 			"/>
		</g>
		<g id="HATCH_12_">
			<polygon points="269.246,25.608 262.17,25.608 255.313,35.44 248.454,25.608 241.434,25.608 251.614,40.217 240.841,54.708 
				248.02,54.708 255.366,44.821 262.715,54.708 269.84,54.708 259.065,40.217 269.246,25.608 			"/>
		</g>
	</g>
</g>
</svg>
