<?xml version="1.0" encoding="utf-8"?>
<!-- Generator: Adobe Illustrator 17.0.0, SVG Export Plug-In . SVG Version: 6.00 Build 0)  -->
<!DOCTYPE svg PUBLIC "-//W3C//DTD SVG 1.1//EN" "http://www.w3.org/Graphics/SVG/1.1/DTD/svg11.dtd">
<svg version="1.1" id="图层_1" xmlns="http://www.w3.org/2000/svg" xmlns:xlink="http://www.w3.org/1999/xlink" x="0px" y="0px"
	 width="233px" height="56px" viewBox="0 0 233 56" enable-background="new 0 0 233 56" xml:space="preserve">
<g>
	<polygon points="227.255,16.719 227.073,16.719 220.622,16.719 220.622,22.053 227.073,22.053 227.073,54.683 233,54.683 
		233,16.719 	"/>
	<rect x="0" y="16.027" fill-rule="evenodd" clip-rule="evenodd" width="6.468" height="6.468"/>
	<rect x="0" y="28.962" fill-rule="evenodd" clip-rule="evenodd" width="6.468" height="26.421"/>
	<path fill-rule="evenodd" clip-rule="evenodd" d="M25.737,35.7c0-7.293,5.912-13.204,13.204-13.204
		c7.294,0,13.206,5.912,13.206,13.204h6.467c0-10.864-8.807-19.672-19.672-19.672c-10.864,0-19.672,8.808-19.672,19.672
		c0,10.866,8.808,19.672,19.672,19.672h0.001v-6.467h-0.001C31.649,48.905,25.737,42.992,25.737,35.7"/>
	<path fill-rule="evenodd" clip-rule="evenodd" d="M91.088,16.028c-10.864,0-19.672,8.807-19.672,19.671
		c0,10.866,8.808,19.672,19.672,19.672c10.864,0,19.672-8.807,19.672-19.672C110.76,24.835,101.952,16.028,91.088,16.028
		 M91.088,48.905c-7.293,0-13.204-5.912-13.204-13.206c0-7.293,5.912-13.204,13.204-13.204c7.293,0,13.204,5.912,13.204,13.204
		C104.293,42.993,98.381,48.905,91.088,48.905"/>
	<path fill-rule="evenodd" clip-rule="evenodd" d="M162.679,32.706c-1.442-9.444-9.598-16.678-19.444-16.678
		c-10.864,0-19.672,8.807-19.672,19.671v0.001v0.001c0,10.866,8.808,19.672,19.672,19.672c10.864,0,19.672-8.807,19.672-19.672
		C162.906,34.683,162.828,33.683,162.679,32.706 M143.234,48.905c-7.293,0-13.204-5.912-13.204-13.206
		c0-7.293,5.912-13.204,13.204-13.204c7.293,0,13.204,5.912,13.204,13.204C156.439,42.993,150.527,48.905,143.234,48.905"/>
	
		<rect x="37.456" y="42.393" transform="matrix(-0.7053 -0.7089 0.7089 -0.7053 50.9284 112.4257)" fill-rule="evenodd" clip-rule="evenodd" width="22.755" height="6.467"/>
	<path d="M214.011,16.717v22.568c0,0.21,0,0.43-0.022,0.639c-0.33,8.354-7.207,15.032-15.648,15.032
		c-8.441,0-15.318-6.678-15.649-15.032c-0.021-0.209-0.021-0.429-0.021-0.639V16.717h5.928v22.568c0,5.378,4.364,9.742,9.742,9.742
		s9.741-4.364,9.741-9.742V16.717H214.011z"/>
</g>
</svg>
