<svg width="42" height="42" viewBox="0 0 42 42" xmlns="http://www.w3.org/2000/svg"><path d="M33.032 31.27c.657.337 1.132.615 1.427.832a.43.43 0 0 0 .064.039 17.513 17.513 0 0 1-13.194 6.356L21 38.5c2.64 0 4.652-3.59 5.677-8.907 2.568.362 4.78.948 6.355 1.677zm-12.198 7.225L21 38.5a17.521 17.521 0 0 1-13.739-6.623c.28-.178.652-.386 1.114-.624l.008.017c1.689-.782 4.113-1.4 6.925-1.754 1 5.246 2.956 8.83 5.526 8.98zm-.126-9.306c1.252 0 2.47.048 3.624.142-.805 4.12-2.122 6.836-3.332 6.836-1.214 0-2.536-2.736-3.34-6.877.98-.068 2.001-.101 3.048-.101zM38.5 22.167a17.371 17.371 0 0 1-2.65 8.147l.058.04a15.708 15.708 0 0 0-1.898-1.204l.01-.019c-1.793-.83-4.208-1.472-6.972-1.865.206-1.6.332-3.313.37-5.1l11.082.001zm-23.918 0c.037 1.758.16 3.445.36 5.023-3 .381-5.626 1.054-7.541 1.941a14.66 14.66 0 0 0-1.436.879A17.333 17.333 0 0 1 3.5 22.167h11.082zm10.496 0A45.756 45.756 0 0 1 24.71 27a46.24 46.24 0 0 0-3.999-.167c-1.176 0-2.325.04-3.426.12a45.919 45.919 0 0 1-.362-4.786h8.156zM6.04 11.867c.578.41 1.13.753 1.654 1.031 1.853.858 4.37 1.516 7.25 1.904a48.41 48.41 0 0 0-.361 5.03L3.5 19.833a17.366 17.366 0 0 1 2.22-7.428l.241-.413.078-.125zm11.245 3.185a46.39 46.39 0 0 0 3.718.144c1.28 0 2.528-.048 3.715-.142.193 1.485.32 3.093.361 4.778h-8.156c.04-1.685.168-3.294.362-4.78zm18.669-3.2a17.37 17.37 0 0 1 2.547 7.98H27.418c-.037-1.76-.16-3.45-.361-5.03 2.702-.364 5.085-.965 6.9-1.745l.355-.159-.01-.019.007-.003a14.946 14.946 0 0 0 1.561-.966l.083-.059zM21 5.832c1.215 0 2.538 2.74 3.341 6.886-1.07.08-2.19.121-3.341.121-1.151 0-2.272-.04-3.34-.12.802-4.147 2.125-6.887 3.34-6.887zM21 3.5a17.52 17.52 0 0 1 13.643 6.503c-.297.205-.737.457-1.318.756-1.632.756-3.947 1.357-6.634 1.716-1-5.241-2.956-8.822-5.525-8.97L21 3.5zm0 0c-2.65 0-4.669 3.62-5.69 8.974-2.52-.336-4.714-.886-6.321-1.575l-.314-.14-.008.017a12.87 12.87 0 0 1-1.297-.743l-.024-.017.238-.287A17.517 17.517 0 0 1 21 3.5zM7.269 9.962l.077.054v.001l-.077-.055z" fill="#888" fill-rule="evenodd"/></svg>