<?xml version="1.0" encoding="utf-8"?>
<!-- Generator: Adobe Illustrator 22.0.0, SVG Export Plug-In . SVG Version: 6.00 Build 0)  -->
<svg version="1.1" id="图层_1" xmlns="http://www.w3.org/2000/svg" xmlns:xlink="http://www.w3.org/1999/xlink" x="0px" y="0px"
	 viewBox="0 0 343.1 56" style="enable-background:new 0 0 343.1 56;" xml:space="preserve">
<style type="text/css">
	.st0{fill:#FFFFFF;}
	.st1{fill:none;stroke:#FFFFFF;stroke-miterlimit:10;}
</style>
<g>
	<rect x="-27" class="st0" width="21" height="56"/>
</g>
<g>
	<rect x="-48" class="st0" width="21" height="5"/>
</g>
<g>
	<rect x="-48" y="51" class="st0" width="21" height="5"/>
</g>
<text transform="matrix(1 0 0 1 -195.7603 31.8022)" class="st0" style="font-family:'AdobeSongStd-Light-GBpc-EUC-H'; font-size:12px;">对于型号字，高度必须为56PX</text>
<text transform="matrix(1 0 0 1 -270.7603 11.8022)" class="st0" style="font-family:'AdobeSongStd-Light-GBpc-EUC-H'; font-size:12px;">型号字需要距离顶部16PX</text>
<text transform="matrix(1 0 0 1 -119.7603 -164.1978)"><tspan x="0" y="0" class="st0" style="font-family:'AdobeSongStd-Light-GBpc-EUC-H'; font-size:12px;">【型号字输出规范】</tspan><tspan x="0" y="20.4" class="st0" style="font-family:'AdobeSongStd-Light-GBpc-EUC-H'; font-size:12px;">1）输出格式：SVG</tspan><tspan x="0" y="40.8" class="st0" style="font-family:'AdobeSongStd-Light-GBpc-EUC-H'; font-size:12px;">2）输出尺寸：画板高度必须为56PX，宽度可以延长。内容</tspan><tspan x="306.9" y="40.8" class="st0" style="font-family:'AdobeSongStd-Light-GBpc-EUC-H'; font-size:12px;">距离画板顶部需要保持16PX距离（依据参考线）</tspan><tspan x="560.3" y="40.8" class="st0" style="font-family:'AdobeSongStd-Light-GBpc-EUC-H'; font-size:12px;">。</tspan><tspan x="0" y="61.2" class="st0" style="font-family:'AdobeSongStd-Light-GBpc-EUC-H'; font-size:12px;">3）内容形式：必须为矢量图形！放入JPG/PNG无效；</tspan><tspan x="0" y="81.6" class="st0" style="font-family:'AdobeSongStd-Light-GBpc-EUC-H'; font-size:12px;">4）颜色调整：按照图片需要，对矢量图形统一填充颜色。一般为白色或黑色。iQOO可能会出现品牌黄。</tspan><tspan x="0" y="102" class="st0" style="font-family:'AdobeSongStd-Light-GBpc-EUC-H'; font-size:12px;">       特别注意在填充颜色的时候，白色的图形要拖到灰色区域测试效果！容易出现误删蒙版的情况。</tspan><tspan x="0" y="122.4" class="st0" style="font-family:'AdobeSongStd-Light-GBpc-EUC-H'; font-size:12px;">5）留白问题：背景不要填充任何色块。***特别注意！左右和底部保持顶边，不要留出空白！***</tspan></text>
<line class="st1" x1="-38.5" y1="4" x2="-38.5" y2="20.5"/>
<line class="st1" x1="-38.5" y1="35" x2="-38.5" y2="51.5"/>
<rect x="-120" class="st0" width="58" height="16"/>
<g>
	<g>
		<g>
			<g>
				<g>
					<g>
						<path d="M19.2,35.3L0.3,16.3h9.9l13.7,13.8c0.9,0.9,1.8,1.3,2.9,1.3c1.1,0,2-0.4,2.9-1.3l13.7-13.8h10L34.5,35.3l19.2,19.5
							H43.7l-14-14.2c-0.9-0.9-1.7-1.4-3-1.4c-1.1,0-2,0.4-2.9,1.4L10,54.7H0L19.2,35.3z"/>
						<path d="M59.3,53.4v-6.5c4.7,1,13.5,2.3,21.5,2.3c12.9,0,16.7-1.6,16.7-6.2c0-4.8-3.7-6.1-15.7-6.1c-6.6,0-10.9,0.3-17.3,0.7
							c-3.8,0.2-5-1.4-4.6-4.6l2.6-16.6h40.2v6.4H68.7l-1.5,8.8c4.5-0.4,10.5-0.8,16.9-0.8c12.8,0,21.8,2,21.8,12.1
							c0,9.6-8.6,12.8-24.8,12.8C71.5,55.5,62.8,54.2,59.3,53.4z"/>
						<path d="M112.4,35.5c0-12.4,7-20,26.2-20c19.2,0,26.1,7.6,26.1,20c0,12.4-7,20-26.1,20C119.3,55.5,112.4,47.9,112.4,35.5z
							 M156.6,35.5c0-8.5-4.3-13.2-18-13.2c-13.8,0-18.2,4.7-18.2,13.2s4.3,13.2,18.2,13.2C152.3,48.7,156.6,44,156.6,35.5z"/>
						<path d="M230.3,29.2c0,8.3-6.1,13-14.5,13h-23.4v12.5h-7.6V16.3h31C224.2,16.3,230.3,21,230.3,29.2z M222.3,29.2
							c0-4.1-2.5-6.3-7.1-6.3h-22.9v12.7h22.9C219.8,35.6,222.3,33.4,222.3,29.2z"/>
						<path d="M237.2,27.7c0-0.9,0.4-1.6,1.5-1.6c0.8,0,1.6,0.6,2.6,1.4l2.4,1.9c5.4-2,10.5-3.1,17.4-3.3v6.7
							c-5.8,0.1-11.5,0.5-16.7,1.1v20.8h-7.3V27.7z"/>
						<path d="M265.2,40.8c0-8.5,5.9-14.7,15.8-14.7h8.3c9.9,0,15.8,6.3,15.8,14.7c0,8.5-5.9,14.7-15.8,14.7h-8.3
							C271,55.5,265.2,49.3,265.2,40.8z M288.5,49.5c5.8,0,9-3.3,9-8.6c0-5.4-3.3-8.6-9-8.6h-6.9c-5.8,0-9,3.3-9,8.6
							c0,5.4,3.2,8.6,9,8.6H288.5z"/>
					</g>
				</g>
			</g>
			<g>
				<path d="M322.9,34.2h-11V28h11v-11h6.1v11h11v6.1h-11v11h-6.1V34.2z"/>
			</g>
		</g>
	</g>
</g>
</svg>
